HIERARCHY
ROOT newVegas:Hips
{
	OFFSET 0.000000 96.479958 0.000000
	CHANNELS 6 Xposition Yposition Zposition Xrotation Yrotation Zrotation
	JOINT newVegas:Pelvis
	{
		OFFSET 0.000000 0.000000 0.000000
		CHANNELS 3 Xrotation Yrotation Zrotation
		JOINT newVegas:LeftUpLeg
		{
			OFFSET 18.735201 -5.666702 -4.541200
			CHANNELS 3 Xrotation Yrotation Zrotation
			JOINT newVegas:LeftLeg
			{
				OFFSET -0.021200 -31.938179 0.493100
				CHANNELS 3 Xrotation Yrotation Zrotation
				JOINT newVegas:LeftFoot
				{
					OFFSET 0.021200 -31.938179 -4.336299
					CHANNELS 3 Xrotation Yrotation Zrotation
					JOINT newVegas:LeftToeBase
					{
						OFFSET 0.943001 -26.722000 15.023500
						CHANNELS 3 Xrotation Yrotation Zrotation
						End Site
						{
							OFFSET 0.000000 30.670183 0.000000
						}
					}
				}
				JOINT newVegas:Left_PantLeg
				{
					OFFSET 0.663870 -9.044666 -1.108900
					CHANNELS 3 Xrotation Yrotation Zrotation
					End Site
					{
						OFFSET 1.415995 20.635357 0.000000
					}
				}
			}
		}
		JOINT newVegas:RightUpLeg
		{
			OFFSET -18.735201 -5.666702 -4.541200
			CHANNELS 3 Xrotation Yrotation Zrotation
			JOINT newVegas:RightLeg
			{
				OFFSET 0.018946 -31.938133 0.493100
				CHANNELS 3 Xrotation Yrotation Zrotation
				JOINT newVegas:RightFoot
				{
					OFFSET -0.018946 -31.938126 -4.336299
					CHANNELS 3 Xrotation Yrotation Zrotation
					JOINT newVegas:RightToeBase
					{
						OFFSET -0.943001 -26.722004 15.023500
						CHANNELS 3 Xrotation Yrotation Zrotation
						End Site
						{
							OFFSET 0.000000 30.670187 0.000000
						}
					}
				}
				JOINT newVegas:Right_PantLeg
				{
					OFFSET -0.661674 -9.044716 -1.108900
					CHANNELS 3 Xrotation Yrotation Zrotation
					End Site
					{
						OFFSET -1.415958 20.635269 0.000000
					}
				}
			}
		}
	}
	JOINT newVegas:Spine
	{
		OFFSET 0.000000 10.199997 -0.299500
		CHANNELS 3 Xrotation Yrotation Zrotation
		JOINT newVegas:Spine1
		{
			OFFSET 0.000000 11.900002 -1.516600
			CHANNELS 3 Xrotation Yrotation Zrotation
			JOINT newVegas:Spine2
			{
				OFFSET 0.000000 13.600006 -2.842500
				CHANNELS 3 Xrotation Yrotation Zrotation
				JOINT newVegas:Neck
				{
					OFFSET 0.000000 9.624100 -2.890100
					CHANNELS 3 Xrotation Yrotation Zrotation
					JOINT newVegas:Head
					{
						OFFSET 0.000000 14.068802 -1.351900
						CHANNELS 3 Xrotation Yrotation Zrotation
						JOINT newVegas:Hair_Back
						{
							OFFSET 0.000000 3.231903 -17.524799
							CHANNELS 3 Xrotation Yrotation Zrotation
							End Site
							{
								OFFSET 0.000000 19.849884 0.000000
							}
						}
						JOINT newVegas:Hair_Front
						{
							OFFSET 0.000000 31.260406 4.573800
							CHANNELS 3 Xrotation Yrotation Zrotation
							JOINT newVegas:Hair_Front1
							{
								OFFSET 0.000000 2.284103 11.993300
								CHANNELS 3 Xrotation Yrotation Zrotation
								JOINT newVegas:Hair_Front2
								{
									OFFSET 0.000000 2.284103 11.993300
									CHANNELS 3 Xrotation Yrotation Zrotation
									End Site
									{
										OFFSET 0.000000 12.208862 0.000000
									}
								}
							}
						}
						JOINT newVegas:Jowel
						{
							OFFSET 0.000000 -7.458206 6.864100
							CHANNELS 3 Xrotation Yrotation Zrotation
							End Site
							{
								OFFSET 0.000000 19.849884 0.000000
							}
						}
					}
				}
				JOINT newVegas:LeftShoulder
				{
					OFFSET 15.263000 10.923401 -0.547700
					CHANNELS 3 Xrotation Yrotation Zrotation
					JOINT newVegas:LeftArm
					{
						OFFSET 25.438599 -2.830597 -13.032500
						CHANNELS 3 Xrotation Yrotation Zrotation
						JOINT newVegas:LeftForeArm
						{
							OFFSET 29.960503 0.000000 0.000000
							CHANNELS 3 Xrotation Yrotation Zrotation
							JOINT newVegas:LeftHand
							{
								OFFSET 27.849251 0.000000 0.000000
								CHANNELS 3 Xrotation Yrotation Zrotation
								JOINT newVegas:LeftHandThumb1
								{
									OFFSET 4.487587 -3.305161 6.305391
									CHANNELS 3 Xrotation Yrotation Zrotation
									JOINT newVegas:LeftHandThumb2
									{
										OFFSET 5.480453 -3.164139 3.164143
										CHANNELS 3 Xrotation Yrotation Zrotation
										JOINT newVegas:LeftHandThumb3
										{
											OFFSET 5.159721 -2.978973 2.978967
											CHANNELS 3 Xrotation Yrotation Zrotation
											End Site
											{
												OFFSET 2.494507 5.926697 1.738678
											}
										}
									}
								}
								JOINT newVegas:LeftHandIndex1
								{
									OFFSET 18.578728 -0.527832 5.208049
									CHANNELS 3 Xrotation Yrotation Zrotation
									JOINT newVegas:LeftHandIndex2
									{
										OFFSET 3.192009 0.000000 0.000000
										CHANNELS 3 Xrotation Yrotation Zrotation
										JOINT newVegas:LeftHandIndex3
										{
											OFFSET 3.835129 0.000000 0.000000
											CHANNELS 3 Xrotation Yrotation Zrotation
											End Site
											{
												OFFSET -0.034599 3.816971 0.371180
											}
										}
									}
								}
								JOINT newVegas:LeftHandMiddle1
								{
									OFFSET 18.476105 0.000000 0.000000
									CHANNELS 3 Xrotation Yrotation Zrotation
									JOINT newVegas:LeftHandMiddle2
									{
										OFFSET 3.324875 0.000000 0.000000
										CHANNELS 3 Xrotation Yrotation Zrotation
										JOINT newVegas:LeftHandMiddle3
										{
											OFFSET 4.596550 0.000000 0.000000
											CHANNELS 3 Xrotation Yrotation Zrotation
											End Site
											{
												OFFSET 0.057701 4.578827 0.399218
											}
										}
									}
								}
								JOINT newVegas:LeftHandRing1
								{
									OFFSET 17.732719 0.121887 -4.201567
									CHANNELS 3 Xrotation Yrotation Zrotation
									JOINT newVegas:LeftHandRing2
									{
										OFFSET 2.733170 0.000000 0.000000
										CHANNELS 3 Xrotation Yrotation Zrotation
										JOINT newVegas:LeftHandRing3
										{
											OFFSET 3.178268 0.000000 0.000000
											CHANNELS 3 Xrotation Yrotation Zrotation
											End Site
											{
												OFFSET 0.119102 3.170624 0.185394
											}
										}
									}
								}
								JOINT newVegas:LeftHandPinky1
								{
									OFFSET 15.989624 -0.606689 -7.535461
									CHANNELS 3 Xrotation Yrotation Zrotation
									JOINT newVegas:LeftHandPinky2
									{
										OFFSET 2.538986 0.000000 0.000000
										CHANNELS 3 Xrotation Yrotation Zrotation
										JOINT newVegas:LeftHandPinky3
										{
											OFFSET 2.593102 0.000000 0.000000
											CHANNELS 3 Xrotation Yrotation Zrotation
											End Site
											{
												OFFSET -0.150902 2.584198 0.152708
											}
										}
									}
								}
							}
							JOINT newVegas:Left_Sleeve
							{
								OFFSET 0.267448 -0.649796 0.577675
								CHANNELS 3 Xrotation Yrotation Zrotation
								End Site
								{
									OFFSET 0.000000 15.991241 0.000000
								}
							}
							JOINT newVegas:Left_CapeC
							{
								OFFSET 15.715958 -8.608795 -6.935905
								CHANNELS 3 Xrotation Yrotation Zrotation
								JOINT newVegas:Left_CapeC1
								{
									OFFSET 0.000000 -8.688499 0.000000
									CHANNELS 3 Xrotation Yrotation Zrotation
									End Site
									{
										OFFSET 0.000000 8.688499 0.000000
									}
								}
							}
						}
						JOINT newVegas:Left_CapeB
						{
							OFFSET 26.118385 -8.608795 -7.079235
							CHANNELS 3 Xrotation Yrotation Zrotation
							JOINT newVegas:Left_CapeB1
							{
								OFFSET 0.000000 -8.688499 0.000000
								CHANNELS 3 Xrotation Yrotation Zrotation
								End Site
								{
									OFFSET 0.000000 8.688499 0.000000
								}
							}
						}
						JOINT newVegas:Left_CapeA
						{
							OFFSET 5.115639 -8.608795 -10.395809
							CHANNELS 3 Xrotation Yrotation Zrotation
							JOINT newVegas:Left_CapeA1
							{
								OFFSET 0.000000 -8.688499 0.000000
								CHANNELS 3 Xrotation Yrotation Zrotation
								End Site
								{
									OFFSET 0.000000 8.688499 0.000000
								}
							}
						}
					}
				}
				JOINT newVegas:RightShoulder
				{
					OFFSET -15.263000 10.923401 -0.547700
					CHANNELS 3 Xrotation Yrotation Zrotation
					JOINT newVegas:RightArm
					{
						OFFSET -25.438599 -2.830597 -13.032500
						CHANNELS 3 Xrotation Yrotation Zrotation
						JOINT newVegas:RightForeArm
						{
							OFFSET -29.960503 0.000000 0.000000
							CHANNELS 3 Xrotation Yrotation Zrotation
							JOINT newVegas:RightHand
							{
								OFFSET -27.849251 0.000000 0.000000
								CHANNELS 3 Xrotation Yrotation Zrotation
								JOINT newVegas:RightHandThumb1
								{
									OFFSET -4.487587 -3.305161 6.305391
									CHANNELS 3 Xrotation Yrotation Zrotation
									JOINT newVegas:RightHandThumb2
									{
										OFFSET -5.480453 -3.164139 3.164143
										CHANNELS 3 Xrotation Yrotation Zrotation
										JOINT newVegas:RightHandThumb3
										{
											OFFSET -5.159721 -2.978973 2.978967
											CHANNELS 3 Xrotation Yrotation Zrotation
											End Site
											{
												OFFSET -2.494507 5.926697 1.738678
											}
										}
									}
								}
								JOINT newVegas:RightHandIndex1
								{
									OFFSET -18.578728 -0.527832 5.208049
									CHANNELS 3 Xrotation Yrotation Zrotation
									JOINT newVegas:RightHandIndex2
									{
										OFFSET -3.192009 0.000000 0.000000
										CHANNELS 3 Xrotation Yrotation Zrotation
										JOINT newVegas:RightHandIndex3
										{
											OFFSET -3.835129 0.000000 0.000000
											CHANNELS 3 Xrotation Yrotation Zrotation
											End Site
											{
												OFFSET 0.034599 3.816971 0.371180
											}
										}
									}
								}
								JOINT newVegas:RightHandMiddle1
								{
									OFFSET -18.476105 0.000000 0.000000
									CHANNELS 3 Xrotation Yrotation Zrotation
									JOINT newVegas:RightHandMiddle2
									{
										OFFSET -3.324875 0.000000 0.000000
										CHANNELS 3 Xrotation Yrotation Zrotation
										JOINT newVegas:RightHandMiddle3
										{
											OFFSET -4.596550 0.000000 0.000000
											CHANNELS 3 Xrotation Yrotation Zrotation
											End Site
											{
												OFFSET -0.057701 4.578827 0.399218
											}
										}
									}
								}
								JOINT newVegas:RightHandRing1
								{
									OFFSET -17.732719 0.121887 -4.201567
									CHANNELS 3 Xrotation Yrotation Zrotation
									JOINT newVegas:RightHandRing2
									{
										OFFSET -2.733170 0.000000 0.000000
										CHANNELS 3 Xrotation Yrotation Zrotation
										JOINT newVegas:RightHandRing3
										{
											OFFSET -3.178268 0.000000 0.000000
											CHANNELS 3 Xrotation Yrotation Zrotation
											End Site
											{
												OFFSET -0.119102 3.170624 0.185394
											}
										}
									}
								}
								JOINT newVegas:RightHandPinky1
								{
									OFFSET -15.989624 -0.606689 -7.535461
									CHANNELS 3 Xrotation Yrotation Zrotation
									JOINT newVegas:RightHandPinky2
									{
										OFFSET -2.538986 0.000000 0.000000
										CHANNELS 3 Xrotation Yrotation Zrotation
										JOINT newVegas:RightHandPinky3
										{
											OFFSET -2.593102 0.000000 0.000000
											CHANNELS 3 Xrotation Yrotation Zrotation
											End Site
											{
												OFFSET 0.150902 2.584198 0.152708
											}
										}
									}
								}
							}
							JOINT newVegas:Right_CapeC
							{
								OFFSET -15.715958 -8.608795 -6.935905
								CHANNELS 3 Xrotation Yrotation Zrotation
								JOINT newVegas:Right_CapeC1
								{
									OFFSET 0.000000 -8.688499 0.000000
									CHANNELS 3 Xrotation Yrotation Zrotation
									End Site
									{
										OFFSET 0.000000 8.688499 0.000000
									}
								}
							}
							JOINT newVegas:Right_Sleeve
							{
								OFFSET -0.267448 -0.649994 0.577675
								CHANNELS 3 Xrotation Yrotation Zrotation
								End Site
								{
									OFFSET 0.000000 15.991302 0.000000
								}
							}
						}
						JOINT newVegas:Right_CapeA
						{
							OFFSET -5.115540 -8.608795 -10.395824
							CHANNELS 3 Xrotation Yrotation Zrotation
							JOINT newVegas:Right_CapeA1
							{
								OFFSET 0.000000 -8.688499 0.000000
								CHANNELS 3 Xrotation Yrotation Zrotation
								End Site
								{
									OFFSET 0.000000 8.688499 0.000000
								}
							}
						}
						JOINT newVegas:Right_CapeB
						{
							OFFSET -26.118187 -8.608795 -7.079266
							CHANNELS 3 Xrotation Yrotation Zrotation
							JOINT newVegas:Right_CapeB1
							{
								OFFSET 0.000000 -8.688499 0.000000
								CHANNELS 3 Xrotation Yrotation Zrotation
								End Site
								{
									OFFSET 0.000000 8.688499 0.000000
								}
							}
						}
					}
				}
				JOINT newVegas:Left_Collar
				{
					OFFSET 18.625099 8.655502 8.828100
					CHANNELS 3 Xrotation Yrotation Zrotation
					JOINT newVegas:Left_Collar1
					{
						OFFSET 14.783401 10.540405 -1.259500
						CHANNELS 3 Xrotation Yrotation Zrotation
						End Site
						{
							OFFSET 0.000000 18.199875 0.000000
						}
					}
				}
				JOINT newVegas:Collar_Back
				{
					OFFSET 0.000000 15.630707 -20.132601
					CHANNELS 3 Xrotation Yrotation Zrotation
					End Site
					{
						OFFSET 0.000000 22.523010 0.000000
					}
				}
				JOINT newVegas:Left_Peck
				{
					OFFSET 17.239599 -5.132599 25.482599
					CHANNELS 3 Xrotation Yrotation Zrotation
					End Site
					{
						OFFSET 0.000000 22.523010 0.000000
					}
				}
				JOINT newVegas:Right_Peck
				{
					OFFSET -17.239599 -5.132202 25.482599
					CHANNELS 3 Xrotation Yrotation Zrotation
					End Site
					{
						OFFSET 0.000000 22.523010 0.000000
					}
				}
				JOINT newVegas:Right_Collar
				{
					OFFSET -18.625099 8.655792 8.828100
					CHANNELS 3 Xrotation Yrotation Zrotation
					JOINT newVegas:Right_Collar1
					{
						OFFSET -14.783401 10.539993 -1.259500
						CHANNELS 3 Xrotation Yrotation Zrotation
						End Site
						{
							OFFSET 0.000000 18.199631 0.000000
						}
					}
				}
			}
		}
		JOINT newVegas:Belly
		{
			OFFSET 0.000000 -6.540398 9.014299
			CHANNELS 3 Xrotation Yrotation Zrotation
			End Site
			{
				OFFSET 0.000000 11.566666 0.000000
			}
		}
	}
	JOINT newVegas:ElvisFacialAnim_Joint
	{
		OFFSET 1.000000 -95.330101 -8.825800
		CHANNELS 3 Xrotation Yrotation Zrotation
		End Site
		{
			OFFSET 0.000000 35.315800 0.000000
		}
	}
}
MOTION
Frames: 4
Frame Time: 0.033333
0.091706 83.488205 4.506966 -0.252389 -0.002477 -1.131989 0.000000 -0.000000 -0.000000 -40.220792 -2.403751 30.358173 52.058145 -6.522044 -8.852653 -11.169492 -7.410845 -13.423261 -0.000000 -0.000000 -0.000000 0.000000 0.000000 0.000001 -42.597472 -8.420517 -26.630206 52.179063 7.889744 -2.521771 -10.588523 2.247237 16.177284 0.000000 -0.000001 0.000000 -0.000000 -0.000001 -0.000000 16.586517 0.271519 0.420221 20.119543 0.469852 0.900696 12.592132 0.364575 0.927905 0.596103 -0.183588 0.021655 0.596142 -0.183588 0.021655 0.000001 0.000000 -0.000000 0.596199 -0.183590 0.021656 0.595966 -0.183585 0.021654 0.000003 0.000000 0.000000 0.000001 0.000000 0.000000 20.445932 -17.628650 8.705104 -33.570199 -17.336490 -36.862254 -2.640498 -52.136207 -20.395449 -54.784138 -19.506913 -15.020213 36.774538 8.584252 -16.863124 2.295247 23.044206 15.130549 0.000003 -0.000002 0.000000 0.652331 9.453936 -24.543696 0.393115 2.026194 -21.957655 0.000003 0.000001 0.000000 0.652352 9.453931 -24.543680 0.393122 2.026178 -21.957656 0.000002 -0.000000 0.000001 0.652281 9.453780 -24.541980 0.393044 2.026044 -21.955954 -0.000005 -0.000000 -0.000002 0.643609 9.449217 -24.541283 0.384725 2.021069 -21.956388 0.000001 -0.000007 -0.000001 0.000002 0.000000 -0.000000 0.000002 0.000000 -0.000000 0.000001 0.000001 0.000000 -0.000000 -0.000003 0.000000 0.000000 -0.000003 0.000000 -0.000000 -0.000003 0.000000 -0.000002 -0.000003 0.000000 18.311828 13.497349 -7.979211 -29.297181 10.275815 43.682540 -39.182470 60.008813 40.506194 -15.081133 -0.977426 14.319037 40.076149 0.945882 20.753829 5.156827 -21.099674 -19.108100 0.000001 -0.000004 -0.000001 18.327838 0.099099 38.977960 -3.924288 9.265832 32.256268 -0.000003 0.000000 -0.000002 -3.492529 -2.447886 34.024505 0.778395 -2.790411 31.036977 0.000001 -0.000001 0.000000 -12.757989 -10.091636 31.800995 -8.974635 -8.729485 30.664158 0.000001 0.000001 -0.000000 -16.765413 -2.967975 36.666344 0.750491 -2.749751 30.591420 -0.000002 0.000003 -0.000000 -0.000003 -0.000004 0.000004 -0.000004 -0.000006 0.000003 -0.000003 -0.000004 0.000003 0.000001 0.000001 -0.000001 0.000001 0.000002 -0.000001 0.000001 0.000001 -0.000001 0.000002 0.000002 -0.000001 -0.000002 -0.000000 -0.000000 -0.000002 -0.000000 -0.000000 -0.000002 -0.000000 -0.000000 -0.000002 -0.000000 -0.000000 -0.000002 -0.000000 -0.000000 -0.000002 -0.000000 -0.000000 -0.000002 -0.000000 -0.000000 -0.000001 0.000000 -0.000000 0.000000 -0.000000 -0.000000 
0.540841 81.664078 3.318364 0.917356 -2.994863 0.533536 0.000000 0.000000 0.000000 -41.803025 -4.531930 28.980520 57.074239 -2.682134 -9.840115 -13.487509 -6.950210 -14.702795 -0.000000 0.000000 -0.000000 0.000001 0.000003 0.000002 -48.822004 -1.279641 -25.173209 58.448394 6.280179 -2.448008 -10.630173 2.215614 14.997292 -0.000000 -0.000001 0.000000 0.000001 0.000000 -0.000001 16.253832 -0.507650 0.714350 19.660554 -1.086350 1.521413 12.258246 -1.265848 1.323933 0.215466 -0.012887 -0.370618 0.215464 -0.012887 -0.370619 0.000003 -0.000000 0.000001 0.215543 -0.012889 -0.370616 0.215535 -0.012883 -0.370618 0.000002 -0.000000 -0.000000 0.000003 -0.000000 0.000000 19.464328 -15.871312 7.747245 -31.382376 -16.420075 -38.318837 -4.881198 -62.667122 -21.757836 -54.784141 -19.506908 -15.020211 36.611528 8.406819 -16.903992 2.337533 23.299327 15.170810 0.000001 0.000002 -0.000002 0.655791 9.461357 -24.630557 0.396176 2.033760 -22.044079 0.000000 -0.000000 -0.000001 0.661292 9.473121 -24.768397 0.401052 2.045761 -22.181176 0.000002 -0.000001 -0.000000 0.666404 9.484026 -24.896244 0.405628 2.056882 -22.308335 0.000002 -0.000001 0.000000 0.662756 9.490279 -25.021563 0.401744 2.062937 -22.434115 0.000001 -0.000003 -0.000002 -0.000000 0.000004 -0.000002 -0.000000 0.000004 -0.000002 -0.000001 0.000004 -0.000002 -0.000002 -0.000001 -0.000000 -0.000001 -0.000002 0.000000 -0.000002 -0.000001 -0.000000 -0.000002 0.000000 -0.000000 17.727133 12.625603 -5.742840 -30.041211 7.130587 43.387568 -42.099561 60.992940 42.600737 -13.210781 1.464433 14.964501 53.833283 10.126562 20.899957 3.276211 -20.294854 -17.956350 0.000004 -0.000006 -0.000001 17.425103 5.906217 74.648941 -7.685615 3.488204 62.461424 0.000001 -0.000002 0.000001 -1.963744 -4.447248 52.187717 1.885837 -4.100166 49.308024 -0.000000 0.000001 -0.000001 -10.317814 -11.536846 50.486952 -6.905037 -9.609592 49.239838 0.000001 -0.000001 -0.000002 -25.431473 -18.550089 62.255719 5.574096 -4.223985 62.538407 -0.000003 0.000002 -0.000002 -0.000003 0.000003 -0.000000 -0.000001 0.000001 0.000000 -0.000003 0.000003 -0.000000 0.000001 0.000002 0.000001 0.000002 0.000003 -0.000000 0.000001 0.000002 0.000001 0.000002 0.000003 -0.000000 -0.000003 0.000001 -0.000001 -0.000003 0.000001 -0.000001 -0.000003 0.000001 -0.000001 -0.000003 0.000001 -0.000001 -0.000003 0.000001 -0.000001 -0.000003 0.000001 -0.000001 -0.000003 0.000001 -0.000001 -0.000001 -0.000000 -0.000000 0.000000 0.000000 0.000000 
0.742515 79.333717 2.288482 1.936660 -3.399366 1.449260 -0.000000 0.000000 0.000000 -45.181093 -9.048505 27.059437 63.118441 0.040326 -10.391393 -15.199548 -6.317246 -16.615246 0.000000 -0.000000 -0.000000 -0.000001 0.000000 0.000001 -55.809582 3.103009 -24.157305 64.442616 8.248767 -5.225278 -7.511708 1.876705 17.574650 -0.000000 -0.000000 0.000000 0.000001 -0.000000 0.000001 15.715094 -1.264062 0.717591 19.168781 -2.547979 1.613088 12.109611 -2.743809 1.195592 0.006306 0.094024 -1.321301 0.006312 0.094021 -1.321300 -0.000000 -0.000000 -0.000000 0.006413 0.094010 -1.321298 0.006298 0.094039 -1.321304 -0.000001 -0.000000 -0.000000 -0.000000 -0.000000 -0.000000 17.254523 -14.051616 3.715439 -31.613677 -17.652530 -40.149614 -10.452034 -68.577756 -26.115030 -54.784141 -19.506908 -15.020216 36.155337 7.907303 -17.023845 2.455493 24.017348 15.284150 -0.000000 -0.000002 -0.000003 0.665537 9.482224 -24.875030 0.404841 2.055040 -22.287225 0.000001 -0.000001 -0.000001 0.686826 9.526953 -25.400787 0.423812 2.100668 -22.810154 0.000005 -0.000001 0.000001 0.707150 9.568666 -25.893348 0.441932 2.143261 -23.300019 -0.000001 -0.000001 -0.000001 0.718512 9.604944 -26.373423 0.451524 2.179971 -23.778573 -0.000000 -0.000005 -0.000001 -0.000000 -0.000001 -0.000002 -0.000000 -0.000001 -0.000002 -0.000000 -0.000001 -0.000001 0.000000 -0.000002 -0.000001 0.000000 -0.000003 -0.000001 0.000000 -0.000002 -0.000001 -0.000001 -0.000001 -0.000000 15.467901 13.069400 0.486804 -25.083146 -0.996426 41.581536 -48.465018 63.084057 49.236221 -12.630330 2.992824 15.164733 64.751635 19.105779 14.427030 5.207186 -21.561183 -16.622730 -0.000000 -0.000001 0.000003 15.369488 8.310750 96.890065 -7.855632 -1.512289 83.660323 -0.000002 0.000001 -0.000001 0.341246 -4.995009 80.586144 4.249630 -5.276683 77.638364 -0.000000 -0.000002 -0.000001 -8.661459 -12.408046 78.992757 -5.152817 -10.936541 77.707964 0.000001 0.000001 -0.000001 -26.597843 -29.957753 79.542737 9.243864 -3.428780 85.988223 -0.000000 0.000002 -0.000001 0.000000 0.000002 0.000000 0.000000 -0.000001 0.000000 0.000000 0.000002 -0.000000 0.000000 -0.000003 -0.000003 -0.000000 -0.000002 -0.000003 0.000000 -0.000003 -0.000003 -0.000000 -0.000002 -0.000002 -0.000002 0.000000 0.000000 -0.000002 0.000000 0.000000 -0.000002 0.000000 0.000000 -0.000002 0.000000 0.000000 -0.000002 0.000000 0.000000 -0.000002 0.000000 0.000000 -0.000002 0.000000 0.000000 0.000001 0.000001 -0.000000 -0.000000 0.000000 0.000000 
0.416661 77.122543 1.642074 2.572434 0.211846 1.331703 -0.000000 -0.000000 0.000000 -50.304623 -14.609674 24.493803 67.372337 0.248082 -10.441105 -14.653414 -5.974653 -17.975323 -0.000000 0.000000 0.000000 -0.000001 0.000001 0.000002 -60.525332 5.516030 -24.472482 69.871995 10.597047 -8.107479 -3.659794 2.046398 21.924414 -0.000001 0.000001 -0.000000 -0.000000 -0.000000 -0.000005 14.908998 -1.923940 0.316088 18.436654 -3.766623 0.898570 11.901715 -3.894525 0.309556 -0.594696 -0.034809 -2.106095 -0.594680 -0.034806 -2.106098 -0.000004 -0.000000 0.000000 -0.594692 -0.034809 -2.106095 -0.594718 -0.034804 -2.106095 0.000002 0.000000 -0.000000 -0.000004 -0.000000 0.000000 14.692657 -10.775101 0.002763 -32.079763 -20.067099 -41.978636 -12.015317 -75.319829 -27.888557 -54.784141 -19.506916 -15.020221 35.457523 7.134811 -17.222937 2.634642 25.127327 15.459561 -0.000000 -0.000001 -0.000001 0.680783 9.514397 -25.252859 0.418431 2.087856 -22.663036 -0.000003 -0.000000 0.000001 0.727507 9.609578 -26.378334 0.460153 2.185037 -23.782311 0.000000 0.000000 -0.000001 0.773060 9.698081 -27.434901 0.501049 2.275481 -24.832828 -0.000003 -0.000000 -0.000003 0.810070 9.779519 -28.463779 0.533814 2.358457 -25.856772 -0.000000 -0.000002 -0.000000 0.000000 -0.000003 -0.000001 0.000000 -0.000003 -0.000001 0.000000 -0.000003 -0.000000 -0.000001 0.000000 -0.000002 -0.000001 0.000000 -0.000002 -0.000001 0.000000 -0.000002 -0.000002 0.000000 -0.000002 14.017657 12.173468 3.836204 -19.964991 -9.871669 45.256024 -43.247713 55.863991 42.234075 -14.246134 7.604511 14.144756 67.017174 21.136777 13.025594 4.892487 -21.609018 -15.913607 0.000002 -0.000001 -0.000000 14.807464 7.707484 106.819002 -6.488959 -3.673160 93.142074 -0.000000 -0.000002 -0.000000 0.611319 -4.811169 86.027783 4.752925 -5.361945 83.063256 0.000000 0.000000 0.000001 -8.665219 -12.593061 84.349790 -4.953213 -11.313660 83.107713 0.000001 -0.000001 0.000000 -24.575526 -34.787448 89.937725 10.678038 -2.438945 97.839079 -0.000002 -0.000000 0.000001 0.000000 0.000001 -0.000001 0.000000 -0.000003 -0.000001 0.000000 0.000001 0.000001 0.000001 0.000000 0.000005 0.000001 0.000001 0.000004 0.000001 0.000000 0.000005 0.000001 0.000001 0.000005 -0.000002 -0.000001 0.000000 -0.000002 -0.000001 0.000000 -0.000002 -0.000001 0.000000 -0.000002 -0.000001 0.000000 -0.000002 -0.000001 0.000000 -0.000002 -0.000001 0.000000 -0.000002 -0.000001 0.000000 -0.000001 -0.000000 -0.000000 -0.000000 -0.000000 0.000000 
